# xmcd CD database file
#
# Track frame offsets:
#	150
#	21521
#	39077
#	58207
#	83170
#	101612
#	126349
#	144596
#	162102
#	186733
#	200266
#
# Disc length: 2920 seconds
#
# Revision: 0
# Processed by: cddbd v1.5.1PL2 Copyright (c) Steve Scherf et al.
# Submitted via: CDex 1.51
#
DISCID=9b0b660b
DTITLE=Elaine Dame - Comes Love
DYEAR=2005
DGENRE=Jazz
TTITLE0=The Best is Yet to Come
TTITLE1=If I Were a Bell
TTITLE2=Ticket to Ride
TTITLE3=Ev`ry Time We Say Goodbye
TTITLE4=Yesterdays
TTITLE5=Midnight Sun
TTITLE6=What`ll I Do
TTITLE7=From This Moment On
TTITLE8=How Long Has This Been Going On?
TTITLE9=You`re the Top
TTITLE10=Comes Love
EXTD=YEAR: 2005
EXTT0=
EXTT1=
EXTT2=
EXTT3=
EXTT4=
EXTT5=
EXTT6=
EXTT7=
EXTT8=
EXTT9=
EXTT10=
PLAYORDER=
